<?xml version="1.0" encoding="UTF-8"?>
<!DOCTYPE svg PUBLIC "-//W3C//DTD SVG 1.1//EN" "http://www.w3.org/Graphics/SVG/1.1/DTD/svg11.dtd">
<!-- Creator: CorelDRAW -->
<svg xmlns="http://www.w3.org/2000/svg" xml:space="preserve" width="341.473mm" height="268.598mm" version="1.1" style="shape-rendering:geometricPrecision; text-rendering:geometricPrecision; image-rendering:optimizeQuality; fill-rule:evenodd; clip-rule:evenodd"
viewBox="0 0 34147.26 26859.78"
 xmlns:xlink="http://www.w3.org/1999/xlink"
 xmlns:xodm="http://www.corel.com/coreldraw/odm/2003">
 <defs>
  <style type="text/css">
   <![CDATA[
    .fil0 {fill:#092C74}
   ]]>
  </style>
 </defs>
 <g id="Katman_x0020_1">
  <metadata id="CorelCorpID_0Corel-Layer"/>
  <path class="fil0" d="M16851.5 1707.35l-1887.84 0c152.76,277.59 1402.04,985.51 1443.69,1096.63 -27.73,180.38 -138.85,638.45 -194.3,805.02 -55.56,180.49 -249.96,652.48 -249.96,735.76 124.93,0 1207.74,-888.41 1318.75,-888.41 277.59,69.37 1082.72,735.65 1249.29,735.65 27.72,-235.94 -263.78,-943.87 -277.59,-1221.45 -13.91,-277.69 402.51,-527.54 610.73,-666.28l596.91 -416.43c97.1,-55.56 124.93,-13.92 152.66,-124.93 -69.37,-27.83 -1499.14,-41.64 -1749,-55.56 -166.57,-263.77 -402.51,-1526.97 -527.44,-1707.35 -27.83,55.45 -69.47,360.87 -97.2,444.15 -41.64,180.49 -319.23,1152.19 -388.7,1263.2zm-7932.06 14302.57l1151.56 0 0 -4130.21 1393.94 0 0 -968.27 -3924.28 0 0 968.27 1378.78 0 0 4130.21zm6197.09 -3093.92l-1878.81 0 0 -1059.03 1992.41 0 0 -945.53 -3143.97 0 0 5098.48 3250 0 0 -945.63 -2098.44 0 0 -1210.24 1878.81 0 0 -938.05zm1007.52 3093.92l1143.98 0 0 -1664.25 431.8 -537 1257.59 2201.25 1340.88 0 -1772.68 -2927.45 1689.39 -2171.03 -1424.27 0 -1151.56 1694.47c-121.19,181.53 -242.38,363.05 -355.99,559.74l-15.16 0 0 -2254.21 -1143.98 0 0 5098.48zm4659.11 -5098.48l0 5098.48 1151.56 0 0 -5098.48 -1151.56 0zm575.83 -295.03c295.45,0 515.08,-242.07 515.08,-514.36 0,-295.03 -219.63,-521.93 -507.5,-521.93 -295.44,0 -530.35,226.9 -530.35,521.93 0,272.29 227.33,514.36 522.77,514.36zm2636.37 5393.51l0 -1535.59c0,-832.12 -15.16,-1550.75 -53.06,-2231.57l30.32 0c242.38,597.64 583.31,1255.72 886.34,1800.4l1090.91 1966.76 1212.21 0 0 -5098.48 -1060.7 0 0 1482.63c0,771.58 22.75,1459.98 90.97,2133.23l-15.16 0c-234.9,-574.9 -530.35,-1210.34 -833.37,-1747.44l-1060.59 -1868.42 -1348.46 0 0 5098.48 1060.59 0zm-12397.8 8298.85c111.01,16.31 293.78,32.61 538.65,32.61 437.51,0 705.23,-71.86 865.15,-199.18 137.19,-111.01 228.57,-267.72 228.57,-470.12 0,-280.69 -186.09,-473.33 -437.51,-538.65l0 -6.54c248.09,-94.71 362.43,-274.26 362.43,-466.8 0,-202.5 -107.79,-352.66 -261.18,-434.29 -163.24,-94.6 -349.34,-123.99 -652.99,-123.99 -251.41,0 -512.59,22.85 -643.12,45.69l0 2161.27zm492.96 -1831.55c39.15,-6.54 101.25,-13.09 212.16,-13.09 225.35,0 352.67,88.17 352.67,254.64 0,163.24 -137.19,271.04 -401.58,271.04l-163.25 0 0 -512.59zm0 868.47l169.79 0c248.09,0 447.27,88.07 447.27,306.87 0,231.79 -199.18,319.95 -424.42,319.95 -84.95,0 -143.62,0 -192.64,-6.54l0 -620.28zm1478.89 -1227.58l0 1227.58c0,698.58 323.28,1008.78 878.23,1008.78 574.59,0 917.39,-323.28 917.39,-1002.34l0 -1234.02 -496.18 0 0 1263.41c0,391.82 -143.73,574.59 -404.9,574.59 -251.31,0 -398.26,-192.54 -398.26,-574.59l0 -1263.41 -496.28 0zm577.91 -127.31c127.32,0 218.7,-101.25 218.7,-222.03 0,-130.53 -94.71,-225.24 -215.48,-225.24 -127.32,0 -225.25,97.93 -225.25,225.24 0,120.78 97.93,222.03 222.03,222.03zm675.73 0c130.64,0 222.03,-101.25 222.03,-222.03 0,-130.53 -94.61,-225.24 -218.7,-225.24 -127.32,0 -222.03,97.93 -222.03,225.24 0,120.78 91.39,222.03 218.7,222.03zm972.95 2327.73l492.96 0 0 -868.37 146.94 0c205.62,3.22 300.33,75.08 362.33,353.6 62.1,272.08 117.55,448.93 150.16,514.77l509.37 0c-42.47,-85.46 -107.79,-373.85 -176.33,-626.3 -55.46,-202.92 -140.4,-346.54 -293.79,-408.64l0 -9.76c189.32,-68.54 388.5,-260.66 388.5,-537.1 0,-201.25 -71.86,-357.44 -205.72,-461.91 -156.71,-124.1 -385.17,-173.01 -711.67,-173.01 -267.72,0 -502.83,19.52 -662.75,45.69l0 2171.03zm492.96 -1828.75c35.93,-9.24 104.47,-15.78 225.25,-15.78 228.56,0 365.64,103.85 365.64,301.99 0,191.49 -146.94,314.97 -395.03,314.97l-195.86 0 0 -601.18zm2399.6 -410.82c-646.45,0 -1070.87,492.97 -1070.87,1152.4 0,630.14 385.27,1123.11 1034.94,1123.11 646.45,0 1080.63,-434.19 1080.63,-1159.04 0,-610.42 -368.97,-1116.47 -1044.7,-1116.47zm-9.87 395.04c342.8,0 528.9,339.48 528.9,737.83 0,427.65 -192.64,747.6 -528.9,747.6 -332.93,0 -535.33,-303.65 -535.33,-737.83 0,-427.65 195.86,-747.6 535.33,-747.6zm1296.12 1740.06c124.1,68.54 372.19,137.08 623.6,137.08 603.98,0 884.68,-313.41 884.68,-682.27 0,-310.2 -179.55,-512.59 -568.05,-656.22 -287.24,-107.79 -408.01,-169.79 -408.01,-310.19 0,-111.01 104.47,-212.16 319.85,-212.16 212.26,0 372.19,62 457.13,104.47l111.02 -398.35c-130.64,-62 -310.2,-110.91 -561.61,-110.91 -515.81,0 -832.44,284.02 -832.44,659.43 0,319.95 241.55,522.35 607.2,652.88 264.49,91.49 368.96,169.79 368.96,306.98 0,143.62 -120.87,238.33 -349.34,238.33 -212.26,0 -421.2,-68.65 -551.74,-137.19l-101.25 408.12zm1847.86 -2095.95l0 1227.58c0,698.58 323.17,1008.78 878.24,1008.78 574.58,0 917.38,-323.28 917.38,-1002.34l0 -1234.02 -496.28 0 0 1263.41c0,391.82 -143.62,574.59 -404.8,574.59 -251.41,0 -398.36,-192.54 -398.36,-574.59l0 -1263.41 -496.18 0zm-10598.96 -1240.87l496.28 0 0 -1782.53 600.66 0 0 -417.89 -1691.05 0 0 417.89 594.11 0 0 1782.53zm2670.53 -1335.26l-809.59 0 0 -457.04 858.61 0 0 -408.12 -1354.9 0 0 2200.42 1400.59 0 0 -408.01 -904.3 0 0 -522.35 809.59 0 0 -404.9zm434.29 1335.26l492.97 0 0 -868.37 146.84 0c205.72,3.22 300.43,75.08 362.42,353.71 62,271.97 117.56,448.82 150.17,514.66l509.26 0c-42.37,-85.36 -107.69,-373.74 -176.23,-626.3 -55.56,-202.92 -140.4,-346.54 -293.88,-408.53l0 -9.87c189.41,-68.54 388.49,-260.66 388.49,-536.99 0,-201.36 -71.76,-357.55 -205.62,-462.02 -156.7,-123.99 -385.27,-173.01 -711.77,-173.01 -267.61,0 -502.72,19.63 -662.65,45.69l0 2171.03zm492.97 -1828.75c35.93,-9.24 104.47,-15.78 225.24,-15.78 228.57,0 365.65,103.95 365.65,301.99 0,191.49 -146.95,315.07 -395.04,315.07l-195.85 0 0 -601.28zm2970.86 1378.26c-101.25,42.48 -264.4,71.87 -417.88,71.87 -440.73,0 -701.91,-277.59 -701.91,-718.31 0,-489.64 306.87,-727.97 698.69,-727.97 179.55,0 319.85,39.15 417.88,81.62l104.47 -391.82c-88.17,-49.01 -284.13,-97.92 -541.98,-97.92 -665.97,0 -1201.41,414.55 -1201.41,1165.47 0,626.83 391.71,1103.48 1152.39,1103.48 264.5,0 473.44,-52.23 561.61,-94.7l-71.86 -391.72zm401.57 -1749.93l0 1227.58c0,698.69 323.18,1008.77 878.24,1008.77 574.59,0 917.39,-323.17 917.39,-1002.22l0 -1234.13 -496.29 0 0 1263.51c0,391.72 -143.62,574.59 -404.8,574.59 -251.41,0 -398.35,-192.64 -398.35,-574.59l0 -1263.51 -496.19 0zm577.81 -127.31c127.32,0 218.81,-101.15 218.81,-222.03 0,-130.53 -94.71,-225.24 -215.49,-225.24 -127.31,0 -225.24,97.93 -225.24,225.24 0,120.88 97.93,222.03 221.92,222.03zm675.84 0c130.53,0 222.02,-101.15 222.02,-222.03 0,-130.53 -94.7,-225.24 -218.8,-225.24 -127.32,0 -221.92,97.93 -221.92,225.24 0,120.88 91.38,222.03 218.7,222.03zm2869.71 2327.73l483.2 0 -117.55 -2200.42 -652.99 0 -231.79 731.3c-75.08,244.87 -150.16,535.43 -208.94,790.07l-13.08 0c-48.92,-257.86 -114.24,-532.12 -186.1,-786.75l-215.38 -734.62 -662.75 0 -140.4 2200.42 460.35 0 42.37 -835.76c13.09,-274.26 26.17,-613.74 35.93,-910.84l6.55 0c55.45,287.34 127.31,600.75 199.17,861.93l235.01 848.74 388.49 0 267.72 -858.61c84.95,-257.85 176.33,-571.26 248.09,-852.06l6.55 0c0,319.95 9.86,639.9 19.62,904.3l35.93 842.3zm2174.25 -1335.26l-809.59 0 0 -457.04 858.61 0 0 -408.12 -1354.9 0 0 2200.42 1400.59 0 0 -408.01 -904.3 0 0 -522.35 809.59 0 0 -404.9zm-9999.97 6403.42c-430.24,0 -3900.5,59.61 -4039.34,208.53l14311.29 0c-27.73,-29.8 0,0 -55.46,-29.8l-1790.63 -148.92c-2831.71,-59.61 -5594.05,-29.81 -8425.86,-29.81zm18850.56 -6151.08c55.56,41.65 0,27.73 83.29,27.73 0,-97.2 -277.59,-971.7 -346.96,-1179.91 -41.64,-111.01 -124.92,-291.5 -138.84,-388.6l1110.44 -832.85c97.2,-55.56 97.2,-69.48 97.2,-208.22 -208.21,-83.28 -1249.28,27.73 -1554.7,-13.91 -124.92,-235.94 -499.71,-1651.8 -499.71,-1651.8 -27.73,-55.55 0,-13.91 -55.45,-55.55l-27.83 222.13c-27.73,69.37 -41.65,138.74 -55.46,222.02 -97.2,444.26 -208.21,638.56 -305.41,1013.34 -13.92,27.73 -13.92,83.29 -27.73,111.01 -41.64,124.93 -55.56,111.12 -236.05,111.12 -83.28,0 -152.65,0 -222.02,0 -319.33,13.81 -930.06,0 -1166.1,124.93 13.91,69.37 -13.81,13.81 27.83,69.37 55.45,55.56 27.73,27.73 69.37,41.64 55.56,83.29 166.57,152.66 249.86,222.13l749.56 610.73c0,124.93 -360.86,1152.08 -388.7,1471.41 194.41,-27.83 791.32,-444.26 999.53,-596.91 291.5,-208.22 222.03,-305.42 1013.24,235.94 208.22,138.84 388.7,333.14 624.64,444.25zm-3692.29 -11132.63c-97.2,111.12 -249.85,832.86 -347.05,999.43 -333.15,41.64 -1388.13,-55.46 -1610.16,41.64 83.29,194.4 346.96,319.33 555.17,499.82 166.57,124.93 430.35,388.59 569.19,499.71 13.81,333.14 -347.06,1318.65 -360.97,1401.94 222.13,13.91 1124.35,-777.3 1332.56,-763.49 55.56,13.92 236.05,180.49 305.42,222.13 166.57,124.93 860.58,624.64 985.61,624.64 0,-97.2 -180.48,-583 -222.13,-735.65 -83.28,-333.14 -124.92,-416.43 -263.77,-680.2 124.93,-97.2 208.22,-180.49 333.14,-263.77 69.37,-41.64 111.02,-83.29 180.49,-124.93 69.37,-41.64 124.93,-69.37 180.49,-138.74l291.5 -249.86c69.37,-69.47 235.94,-180.48 263.66,-291.6l-1554.69 0c-69.37,-124.93 -305.31,-1138.17 -402.51,-1457.5l-55.56 -97.09c-27.73,55.45 -180.39,458.07 -180.39,513.52zm-26859.78 10258.14c111.02,55.45 222.13,124.93 333.15,194.3 97.2,55.55 249.85,194.29 360.87,180.48 -13.82,-97.2 -83.29,-263.77 -124.93,-360.97 -111.02,-291.5 -124.93,-471.88 -194.3,-777.3 -55.56,-235.94 -69.37,-305.41 55.56,-402.51l888.31 -624.64c55.55,-27.83 83.28,-41.64 138.84,-97.2 27.73,-27.73 41.64,-27.73 55.56,-55.56l55.45 -83.29c-291.5,-111.01 -1499.14,13.92 -1596.23,-111.01 -55.56,-69.37 -236.05,-707.93 -249.86,-791.21 -55.56,-152.66 -208.21,-721.84 -263.77,-832.86l-277.59 805.13c-41.64,138.74 -222.12,721.74 -277.68,805.03 -235.94,27.83 -610.73,0 -860.59,13.91 -152.75,0 -735.75,-13.91 -832.85,27.73 27.73,69.47 166.57,180.48 235.94,194.4 97.2,111.01 999.43,763.38 1013.34,805.02 13.81,166.58 -124.93,610.83 -194.4,777.4 -55.45,166.58 -208.21,583 -208.21,763.39 138.84,0 985.61,-652.37 1207.74,-805.03 222.03,-152.76 69.37,13.81 735.65,374.79zm4886.12 -14797.2c27.73,194.3 1013.34,832.86 1207.64,1054.99 27.73,97.09 -235.94,971.69 -305.41,1152.08 -27.73,83.28 -138.74,277.69 -124.93,347.06 277.69,-124.93 971.7,-707.93 1263.2,-832.86 124.92,-41.64 541.35,277.58 666.28,347.06l666.28 416.43c-27.72,-499.72 -333.14,-1096.63 -416.42,-1457.6l1096.62 -818.94c83.29,-41.65 124.93,-55.56 152.66,-138.85l-1554.7 -41.64c-83.28,-138.74 -166.57,-596.81 -222.02,-805.02 -41.65,-138.85 -194.41,-735.76 -249.86,-805.13l-527.54 1360.29c-97.1,263.77 -111.02,208.22 -721.74,208.22 -305.42,13.91 -624.64,0 -930.06,13.91zm-5316.46 19974.81c0,124.93 416.43,388.6 555.27,485.8 208.22,166.57 388.7,291.5 583,458.07 69.37,55.56 97.2,55.56 69.37,194.4 -27.73,194.3 -416.43,1318.66 -416.43,1360.3 97.2,-13.92 541.36,-347.06 652.48,-430.35 805.02,-555.16 596.81,-499.71 957.78,-180.38 111.01,83.29 194.3,138.74 319.23,208.22 166.57,111.01 499.71,360.87 694.01,346.95 0,-208.21 -416.43,-1054.88 -374.79,-1512.95l624.64 -416.53c166.57,-111.01 485.9,-360.87 555.27,-499.72 -291.5,0 -1346.48,27.84 -1540.78,-41.64 -55.56,-27.73 -124.93,-291.5 -138.84,-346.95l-346.95 -1124.36c-83.29,138.74 -194.41,527.44 -263.78,707.93 -13.91,41.64 -235.94,624.64 -277.58,652.37 -55.56,27.73 -1374.21,41.64 -1651.9,138.84zm26720.94 235.94c-388.6,0 -1304.74,-27.72 -1624.07,27.73 27.83,124.93 430.34,402.62 583,527.55 124.93,83.28 513.63,416.42 610.83,527.44 -41.64,374.78 -360.97,1124.35 -374.79,1402.04 291.5,-41.65 1193.73,-791.21 1290.93,-777.4l929.95 638.55c69.47,55.56 222.13,180.49 333.14,180.49 27.83,-124.93 -124.93,-638.56 -166.57,-777.4 -55.45,-166.57 -235.94,-624.64 -235.94,-721.74 152.66,-152.76 444.26,-291.5 638.56,-430.34 111.01,-83.29 194.3,-152.76 291.5,-222.13 83.28,-69.37 235.94,-166.57 249.85,-291.5 -235.94,-111.01 -1207.64,-69.37 -1540.78,-83.29 -69.47,-111.01 -180.48,-610.72 -236.04,-763.48 -41.65,-138.74 -166.57,-707.93 -249.86,-777.3 0,0 -111.01,513.63 -208.21,791.21 -97.1,249.86 -222.03,513.63 -291.5,749.57zm-24860.83 -15047.05l-1679.62 41.65c69.37,236.04 666.28,638.55 902.22,819.04 83.29,69.37 249.86,166.57 319.33,235.94 13.81,194.4 -111.11,624.64 -180.48,805.13 -69.37,194.3 -222.13,555.27 -263.78,749.57 138.85,-27.73 541.36,-333.15 680.2,-416.43 111.02,-83.29 235.94,-138.84 333.15,-222.13 430.34,-305.31 55.55,-388.6 943.86,166.57 138.85,83.29 527.55,360.97 680.2,374.79l-333.14 -1193.73c-111.01,-374.78 -124.93,-333.14 291.5,-583 124.93,-69.47 180.49,-124.92 291.5,-208.21 152.76,-97.2 527.54,-305.42 596.91,-416.43 -111.01,-83.28 -1277.11,-69.47 -1554.69,-111.11 -166.57,-235.95 -458.07,-1526.87 -471.99,-1554.6 -13.81,27.73 -111.01,319.23 -138.74,374.79l-416.43 1138.16zm20071.91 -4948.53l-1887.84 0c152.76,277.59 1402.04,985.51 1443.69,1096.63 -27.83,180.38 -138.85,638.45 -194.41,805.02 -55.45,180.49 -249.85,652.48 -249.85,735.76 124.93,0 1207.64,-888.41 1318.75,-888.41 277.59,69.37 1082.72,735.65 1249.29,735.65 27.72,-235.94 -263.78,-943.86 -277.69,-1221.45 -13.81,-277.69 402.62,-527.54 610.83,-666.28l596.91 -416.43c97.1,-55.56 124.93,-13.92 152.66,-124.93 -69.37,-27.83 -1499.14,-41.64 -1749,-55.56 -166.57,-263.77 -402.61,-1526.86 -527.54,-1707.35 -27.73,55.56 -69.37,360.87 -97.1,444.16 -41.64,180.48 -319.33,1152.18 -388.7,1263.19z"/>
 </g>
</svg>
