<?xml version="1.0" encoding="UTF-8"?>
<!DOCTYPE svg PUBLIC "-//W3C//DTD SVG 1.1//EN" "http://www.w3.org/Graphics/SVG/1.1/DTD/svg11.dtd">
<!-- Creator: CorelDRAW -->
<svg xmlns="http://www.w3.org/2000/svg" xml:space="preserve" width="705.556mm" height="554.983mm" version="1.1" style="shape-rendering:geometricPrecision; text-rendering:geometricPrecision; image-rendering:optimizeQuality; fill-rule:evenodd; clip-rule:evenodd"
viewBox="0 0 4081.04 3210.11"
 xmlns:xlink="http://www.w3.org/1999/xlink"
 xmlns:xodm="http://www.corel.com/coreldraw/odm/2003">
 <defs>
  <style type="text/css">
   <![CDATA[
    .fil0 {fill:#072C74}
    .fil1 {fill:#072C74;fill-rule:nonzero}
   ]]>
  </style>
 </defs>
 <g id="Katman_x0020_1">
  <metadata id="CorelCorpID_0Corel-Layer"/>
  <g id="_1936313383664">
   <path class="fil0" d="M2013.99 204.06l-225.63 0c18.24,33.17 167.54,117.76 172.52,131.05 -3.3,21.56 -16.58,76.32 -23.21,96.23 -6.65,21.56 -29.87,77.97 -29.87,87.92 14.93,0 144.33,-106.18 157.61,-106.18 33.17,8.3 129.4,87.92 149.28,87.92 3.33,-28.19 -31.52,-112.81 -33.17,-145.98 -1.65,-33.19 48.1,-63.03 72.99,-79.64l71.34 -49.75c11.61,-6.65 14.93,-1.68 18.26,-14.93 -8.3,-3.33 -179.17,-4.98 -209.04,-6.63 -19.91,-31.54 -48.1,-182.5 -63.04,-204.06 -3.33,6.63 -8.3,43.12 -11.61,53.08 -4.98,21.56 -38.17,137.7 -46.45,150.98z"/>
   <path class="fil0" d="M2903.19 518.43l-225.63 0c18.26,33.17 167.57,117.79 172.55,131.05 -3.33,21.59 -16.61,76.32 -23.24,96.23 -6.63,21.56 -29.87,77.97 -29.87,87.92 14.93,0 144.33,-106.16 157.61,-106.16 33.17,8.28 129.4,87.92 149.31,87.92 3.33,-28.22 -31.52,-112.81 -33.17,-146.01 -1.68,-33.17 48.1,-63.04 72.99,-79.62l71.34 -49.78c11.61,-6.63 14.91,-1.65 18.24,-14.93 -8.3,-3.3 -179.17,-4.98 -209.04,-6.63 -19.89,-31.52 -48.1,-182.48 -63.03,-204.06 -3.3,6.65 -8.28,43.15 -11.61,53.1 -4.98,21.56 -38.15,137.68 -46.45,150.96z"/>
   <path class="fil0" d="M504.33 1109.84l-200.74 4.98c8.28,28.22 79.62,76.32 107.83,97.88 9.96,8.3 29.84,19.91 38.15,28.22 1.65,23.21 -13.26,74.64 -21.56,96.2 -8.3,23.24 -26.54,66.36 -31.52,89.6 16.58,-3.33 64.69,-39.82 81.3,-49.78 13.26,-9.96 28.19,-16.58 39.8,-26.54 51.43,-36.5 6.65,-46.45 112.81,19.91 16.58,9.96 63.03,43.12 81.3,44.77l-39.82 -142.65c-13.26,-44.8 -14.93,-39.82 34.84,-69.69 14.93,-8.28 21.56,-14.93 34.84,-24.89 18.24,-11.61 63.04,-36.5 71.34,-49.75 -13.28,-9.96 -152.64,-8.3 -185.8,-13.28 -19.91,-28.19 -54.76,-182.48 -56.41,-185.8 -1.68,3.33 -13.28,38.17 -16.61,44.8l-49.75 136.03z"/>
   <path class="fil0" d="M3475.53 2908.17c-46.45,0 -155.94,-3.33 -194.11,3.33 3.33,14.93 51.43,48.1 69.69,63.04 14.93,9.96 61.38,49.78 72.99,63.04 -4.98,44.8 -43.12,134.37 -44.8,167.57 34.84,-4.98 142.68,-94.58 154.29,-92.9l111.16 76.29c8.28,6.65 26.54,21.59 39.82,21.59 3.3,-14.93 -14.93,-76.32 -19.91,-92.9 -6.65,-19.91 -28.22,-74.67 -28.22,-86.27 18.26,-18.26 53.1,-34.84 76.32,-51.43 13.28,-9.96 23.24,-18.26 34.84,-26.54 9.96,-8.3 28.19,-19.91 29.87,-34.84 -28.22,-13.28 -144.33,-8.3 -184.15,-9.96 -8.3,-13.28 -21.56,-72.99 -28.22,-91.25 -4.98,-16.58 -19.89,-84.6 -29.84,-92.9 0,0 -13.28,61.38 -24.89,94.58 -11.61,29.84 -26.54,61.38 -34.84,89.57z"/>
   <path class="fil0" d="M282.03 2879.98c0,14.91 49.75,46.45 66.34,58.06 24.89,19.91 46.45,34.84 69.69,54.73 8.3,6.65 11.61,6.65 8.3,23.24 -3.33,23.21 -49.78,157.61 -49.78,162.57 11.61,-1.65 64.69,-41.47 77.97,-51.4 96.23,-66.36 71.34,-59.73 114.46,-21.59 13.28,9.96 23.24,16.61 38.17,24.89 19.91,13.28 59.71,43.15 82.95,41.47 0,-24.89 -49.78,-126.07 -44.8,-180.83l74.67 -49.78c19.89,-13.26 58.06,-43.12 66.34,-59.71 -34.82,0 -160.91,3.33 -184.13,-4.98 -6.65,-3.33 -14.93,-34.84 -16.61,-41.47l-41.47 -134.37c-9.96,16.58 -23.21,63.03 -31.52,84.6 -1.65,4.98 -28.19,74.67 -33.17,77.97 -6.63,3.33 -164.24,4.98 -197.41,16.61z"/>
   <path class="fil0" d="M917.41 492.72c3.3,23.21 121.09,99.53 144.33,126.07 3.3,11.61 -28.22,116.11 -36.5,137.7 -3.33,9.96 -16.58,33.17 -14.93,41.47 33.17,-14.93 116.11,-84.62 150.96,-99.56 14.93,-4.98 64.71,33.19 79.64,41.47l79.62 49.78c-3.33,-59.71 -39.82,-131.05 -49.78,-174.2l131.07 -97.88c9.96,-4.98 14.93,-6.63 18.23,-16.58l-185.8 -4.98c-9.96,-16.58 -19.91,-71.34 -26.54,-96.23 -4.98,-16.58 -23.21,-87.92 -29.87,-96.2l-63.04 162.56c-11.61,31.52 -13.26,24.89 -86.27,24.89 -36.5,1.68 -74.64,0 -111.14,1.68z"/>
   <path class="fil0" d="M333.46 2261.18c13.26,6.63 26.54,14.91 39.8,23.21 11.63,6.63 29.87,23.24 43.15,21.56 -1.68,-11.61 -9.96,-31.52 -14.93,-43.12 -13.28,-34.84 -14.93,-56.41 -23.24,-92.9 -6.63,-28.22 -8.28,-36.5 6.65,-48.1l106.16 -74.67c6.63,-3.33 9.96,-4.98 16.58,-11.61 3.33,-3.33 4.98,-3.33 6.65,-6.65l6.63 -9.93c-34.84,-13.28 -179.17,1.65 -190.78,-13.28 -6.63,-8.3 -28.22,-84.6 -29.87,-94.55 -6.63,-18.26 -24.89,-86.27 -31.52,-99.56l-33.17 96.23c-4.98,16.58 -26.56,86.27 -33.19,96.23 -28.19,3.3 -72.99,0 -102.86,1.65 -18.24,0 -87.92,-1.65 -99.53,3.33 3.33,8.28 19.91,21.56 28.19,23.21 11.63,13.28 119.47,91.25 121.12,96.23 1.65,19.91 -14.93,72.99 -23.24,92.9 -6.63,19.91 -24.89,69.66 -24.89,91.25 16.61,0 117.79,-77.99 144.36,-96.23 26.54,-18.26 8.28,1.65 87.92,44.8z"/>
   <path class="fil0" d="M3543.54 1035.2c-11.61,13.26 -29.87,99.53 -41.47,119.44 -39.82,4.98 -165.89,-6.63 -192.43,4.98 9.96,23.21 41.47,38.15 66.36,59.71 19.91,14.93 51.43,46.45 68.01,59.73 1.65,39.82 -41.47,157.61 -43.12,167.57 26.54,1.65 134.37,-92.9 159.24,-91.25 6.65,1.65 28.22,21.56 36.52,26.54 19.89,14.93 102.83,74.64 117.76,74.64 0,-11.61 -21.56,-69.66 -26.54,-87.92 -9.96,-39.8 -14.93,-49.75 -31.52,-81.27 14.93,-11.63 24.89,-21.59 39.82,-31.52 8.28,-4.98 13.26,-9.96 21.56,-14.93 8.3,-4.98 14.93,-8.3 21.56,-16.61l34.84 -29.84c8.3,-8.3 28.19,-21.59 31.52,-34.84l-185.8 0c-8.3,-14.93 -36.5,-136.05 -48.1,-174.2l-6.65 -11.61c-3.3,6.63 -21.56,54.73 -21.56,61.38z"/>
   <path class="fil0" d="M3984.84 2365.69c6.63,4.98 0,3.3 9.96,3.3 0,-11.61 -33.19,-116.11 -41.47,-141 -4.98,-13.26 -14.93,-34.84 -16.58,-46.45l132.7 -99.53c11.61,-6.63 11.61,-8.3 11.61,-24.89 -24.86,-9.96 -149.28,3.33 -185.8,-1.65 -14.91,-28.22 -59.71,-197.44 -59.71,-197.44 -3.33,-6.63 0,-1.65 -6.63,-6.63l-3.33 26.54c-3.33,8.3 -4.98,16.58 -6.63,26.54 -11.63,53.1 -24.89,76.32 -36.5,121.12 -1.68,3.3 -1.68,9.96 -3.33,13.26 -4.98,14.93 -6.63,13.28 -28.22,13.28 -9.93,0 -18.24,0 -26.54,0 -38.15,1.65 -111.14,0 -139.35,14.93 1.68,8.3 -1.65,1.65 3.33,8.3 6.63,6.63 3.33,3.3 8.3,4.95 6.63,9.96 19.89,18.26 29.84,26.57l89.6 72.99c0,14.93 -43.15,137.68 -46.45,175.85 23.21,-3.33 94.55,-53.08 119.44,-71.34 34.84,-24.89 26.54,-36.5 121.09,28.22 24.89,16.58 46.45,39.8 74.67,53.08z"/>
   <path class="fil0" d="M1731.94 3100.83c-51.43,0 -466.16,7.11 -482.74,24.91l1710.38 0c-3.3,-3.56 0,0 -6.63,-3.56l-213.99 -17.8c-338.44,-7.11 -668.57,-3.56 -1007.01,-3.56z"/>
   <path class="fil1" d="M1341.39 2495.11l59.3 0 0 -213.03 71.8 0 0 -49.96 -202.11 0 0 49.96 71.01 0 0 213.03zm319.16 -159.57l-96.76 0 0 -54.63 102.63 0 0 -48.79 -161.93 0 0 262.98 167.39 0 0 -48.76 -108.09 0 0 -62.43 96.76 0 0 -48.38zm51.91 159.57l58.89 0 0 -103.8 17.57 0c24.58,0.41 35.89,8.99 43.3,42.29 7.42,32.51 14.04,53.64 17.96,61.51l60.85 0c-5.05,-10.21 -12.88,-44.67 -21.05,-74.84 -6.63,-24.25 -16.79,-41.42 -35.12,-48.84l0 -1.17c22.63,-8.2 46.43,-31.16 46.43,-64.18 0,-24.08 -8.58,-42.74 -24.58,-55.21 -18.72,-14.83 -46.02,-20.7 -85.05,-20.7 -32,0 -60.09,2.36 -79.19,5.49l0 259.45zm58.89 -218.57c4.29,-1.09 12.5,-1.88 26.92,-1.88 27.33,0 43.71,12.42 43.71,36.09 0,22.88 -17.55,37.66 -47.21,37.66l-23.42 0 0 -71.87zm355.07 164.72c-12.09,5.08 -31.59,8.58 -49.96,8.58 -52.67,0 -83.89,-33.17 -83.89,-85.84 0,-58.51 36.67,-87.01 83.5,-87.01 21.46,0 38.25,4.67 49.96,9.75l12.47 -46.81c-10.54,-5.87 -33.93,-11.71 -64.76,-11.71 -79.59,0 -143.59,49.55 -143.59,139.28 0,74.92 46.83,131.89 137.73,131.89 31.62,0 56.58,-6.25 67.12,-11.3l-8.58 -46.83zm48 -209.14l0 146.72c0,83.5 38.63,120.56 104.94,120.56 68.67,0 109.64,-38.63 109.64,-119.77l0 -147.5 -59.3 0 0 151.01c0,46.81 -17.17,68.67 -48.38,68.67 -30.04,0 -47.59,-23.03 -47.59,-68.67l0 -151.01 -59.3 0zm69.05 -15.21c15.21,0 26.13,-12.09 26.13,-26.54 0,-15.59 -11.3,-26.92 -25.75,-26.92 -15.21,0 -26.92,11.71 -26.92,26.92 0,14.45 11.71,26.54 26.54,26.54zm80.76 0c15.62,0 26.54,-12.09 26.54,-26.54 0,-15.59 -11.33,-26.92 -26.16,-26.92 -15.21,0 -26.51,11.71 -26.51,26.92 0,14.45 10.92,26.54 26.13,26.54zm342.96 278.2l57.75 0 -14.04 -262.98 -78.04 0 -27.68 87.42c-8.99,29.26 -17.96,63.97 -24.99,94.43l-1.55 0c-5.84,-30.83 -13.66,-63.62 -22.25,-94.04l-25.75 -87.8 -79.19 0 -16.79 262.98 55.01 0 5.08 -99.89c1.55,-32.76 3.12,-73.35 4.29,-108.85l0.79 0c6.63,34.34 15.21,71.8 23.8,103.01l28.09 101.44 46.43 0 32 -102.6c10.13,-30.83 21.08,-68.29 29.66,-101.84l0.76 0c0,38.22 1.17,76.47 2.34,108.06l4.29 100.67zm259.86 -159.57l-96.76 0 0 -54.63 102.63 0 0 -48.79 -161.93 0 0 262.98 167.39 0 0 -48.76 -108.09 0 0 -62.43 96.76 0 0 -48.38z"/>
   <path class="fil1" d="M1386.06 2905.22c13.28,1.96 35.12,3.91 64.38,3.91 52.29,0 84.29,-8.58 103.39,-23.82 16.41,-13.26 27.33,-31.97 27.33,-56.18 0,-33.55 -22.25,-56.58 -52.29,-64.38l0 -0.79c29.66,-11.3 43.3,-32.76 43.3,-55.77 0,-24.2 -12.88,-42.16 -31.21,-51.91 -19.51,-11.3 -41.73,-14.83 -78.02,-14.83 -30.04,0 -61.26,2.74 -76.88,5.49l0 258.29zm58.92 -218.9c4.67,-0.79 12.09,-1.55 25.37,-1.55 26.92,0 42.13,10.54 42.13,30.43 0,19.5 -16.38,32.38 -48,32.38l-19.5 0 0 -61.26zm0 103.8l20.29 0c29.66,0 53.46,10.54 53.46,36.67 0,27.71 -23.8,38.25 -50.74,38.25 -10.13,0 -17.17,0 -23.01,-0.79l0 -74.13zm176.76 -146.72l0 146.72c0,83.5 38.63,120.56 104.94,120.56 68.67,0 109.64,-38.63 109.64,-119.77l0 -147.5 -59.3 0 0 151.01c0,46.81 -17.17,68.67 -48.38,68.67 -30.04,0 -47.59,-23.03 -47.59,-68.67l0 -151.01 -59.3 0zm69.05 -15.21c15.21,0 26.13,-12.09 26.13,-26.54 0,-15.59 -11.3,-26.92 -25.75,-26.92 -15.21,0 -26.92,11.71 -26.92,26.92 0,14.45 11.71,26.54 26.54,26.54zm80.76 0c15.62,0 26.54,-12.09 26.54,-26.54 0,-15.59 -11.33,-26.92 -26.16,-26.92 -15.21,0 -26.51,11.71 -26.51,26.92 0,14.45 10.92,26.54 26.13,26.54zm116.27 278.2l58.92 0 0 -103.8 17.57 0c24.56,0.41 35.89,8.99 43.3,42.29 7.42,32.51 14.04,53.64 17.96,61.51l60.85 0c-5.05,-10.21 -12.88,-44.67 -21.05,-74.84 -6.65,-24.25 -16.79,-41.42 -35.12,-48.84l0 -1.17c22.63,-8.2 46.43,-31.16 46.43,-64.18 0,-24.08 -8.58,-42.74 -24.58,-55.21 -18.72,-14.83 -46.04,-20.7 -85.05,-20.7 -32,0 -60.09,2.36 -79.21,5.49l0 259.45zm58.92 -218.57c4.29,-1.09 12.5,-1.88 26.92,-1.88 27.33,0 43.71,12.42 43.71,36.09 0,22.88 -17.55,37.66 -47.21,37.66l-23.42 0 0 -71.87zm286.78 -49.09c-77.26,0 -127.98,58.92 -127.98,137.73 0,75.3 46.04,134.22 123.68,134.22 77.26,0 129.14,-51.89 129.14,-138.51 0,-72.96 -44.09,-133.43 -124.85,-133.43zm-1.17 47.21c40.97,0 63.21,40.58 63.21,88.18 0,51.12 -23.01,89.35 -63.21,89.35 -39.8,0 -64,-36.29 -64,-88.18 0,-51.12 23.42,-89.35 64,-89.35zm154.9 207.95c14.83,8.2 44.5,16.41 74.54,16.41 72.18,0 105.73,-37.46 105.73,-81.55 0,-37.08 -21.46,-61.26 -67.89,-78.43 -34.34,-12.88 -48.76,-20.29 -48.76,-37.08 0,-13.26 12.47,-25.35 38.22,-25.35 25.37,0 44.5,7.42 54.63,12.47l13.26 -47.59c-15.59,-7.42 -37.05,-13.26 -67.1,-13.26 -61.66,0 -99.5,33.93 -99.5,78.81 0,38.25 28.88,62.43 72.58,78.04 31.59,10.92 44.09,20.29 44.09,36.67 0,17.17 -14.45,28.47 -41.75,28.47 -25.37,0 -50.34,-8.18 -65.93,-16.38l-12.11 48.76zm220.85 -250.49l0 146.72c0,83.5 38.63,120.56 104.97,120.56 68.67,0 109.64,-38.63 109.64,-119.77l0 -147.5 -59.33 0 0 151.01c0,46.81 -17.14,68.67 -48.38,68.67 -30.04,0 -47.59,-23.03 -47.59,-68.67l0 -151.01 -59.3 0z"/>
   <path class="fil1" d="M1066.01 1913.4l137.6 0 0 -493.61 166.6 0 0 -115.73 -469 0 0 115.73 164.8 0 0 493.61zm740.62 -369.75l-224.56 0 0 -126.58 238.12 0 0 -113.02 -375.72 0 0 609.35 388.42 0 0 -113.02 -250.82 0 0 -144.64 224.56 0 0 -112.1zm120.41 369.75l136.71 0 0 -198.88 51.63 -64.2 150.3 263.09 160.25 0 -211.89 -349.87 201.93 -259.48 -170.24 0 -137.63 202.51c-14.48,21.71 -28.95,43.4 -42.54,66.89l-1.83 0 0 -269.41 -136.71 0 0 609.35zm556.83 -609.35l0 609.35 137.63 0 0 -609.35 -137.63 0zm68.83 -35.25c35.3,0 61.56,-28.93 61.56,-61.46 0,-35.28 -26.26,-62.4 -60.67,-62.4 -35.3,0 -63.36,27.12 -63.36,62.4 0,32.53 27.15,61.46 62.48,61.46zm315.07 644.6l0 -183.52c0,-99.45 -1.8,-185.35 -6.32,-266.69l3.61 0c28.98,71.42 69.71,150.07 105.93,215.16l130.39 235.05 144.86 0 0 -609.35 -126.76 0 0 177.22c0,92.19 2.72,174.48 10.87,254.93l-1.8 0c-28.09,-68.7 -63.39,-144.66 -99.61,-208.84l-126.76 -223.31 -161.17 0 0 609.35 126.76 0z"/>
  </g>
 </g>
</svg>
